<svg xmlns="http://www.w3.org/2000/svg" xmlns:xlink="http://www.w3.org/1999/xlink" width="1112pt" height="868pt" viewBox="0 0 1112.49 868.37"><g id="graph0" class="graph" transform="scale(1 1) rotate(0) translate(596.496 386.294)"><title>topicsAndConcepts</title><polygon fill="#fff" stroke="none" points="-596.496 482.078 -596.496 -386.294 515.996 -386.294 515.996 482.078 -596.496 482.078"/><text x="-40.25" y="457.678" font-family="Times,serif" font-size="12" text-anchor="middle">Concepts (red ellipses) and topics (blue squares)</text><text x="-40.25" y="470.678" font-family="Times,serif" font-size="12" text-anchor="middle">coarse overview of the Physics Derivation Graph</text><g id="node1" class="node"><title>cosmology</title><g id="a_node1"><a xlink:href="https://en.wikipedia.org/wiki/Cosmology" xlink:title="cosmology"><polygon fill="none" stroke="#00f" stroke-width="2" points="23.157 256.624 -54.843 256.624 -54.843 292.624 23.157 292.624 23.157 256.624"/><text x="-15.843" y="278.324" font-family="Times,serif" font-size="14" text-anchor="middle">cosmology</text></a></g></g><g id="node21" class="node"><title>Friedmann_equations</title><g id="a_node21"><a xlink:href="https://en.wikipedia.org/wiki/Friedmann_equations" xlink:title="Friedmann\nequations"><ellipse cx="-.806" cy="143.786" fill="none" stroke="red" stroke-width="2" rx="54.395" ry="26.741"/><text x="-.806" y="139.986" font-family="Times,serif" font-size="14" text-anchor="middle">Friedmann</text><text x="-.806" y="154.986" font-family="Times,serif" font-size="14" text-anchor="middle">equations</text></a></g></g><g id="edge14" class="edge"><title>cosmology-&gt;Friedmann_equations</title><path fill="none" stroke="#000" d="M-13.7522,256.432C-11.5209,237.017 -7.92394,205.719 -5.08706,181.036"/><polygon fill="#000" stroke="#000" points="-8.543 180.451 -3.924 170.916 -1.589 181.25 -8.543 180.451"/></g><g id="node24" class="node"><title>Cosmological_equation_of_state</title><g id="a_node24"><a xlink:href="https://en.wikipedia.org/wiki/Equation_of_state_(cosmology)" xlink:title="equation\nof state"><ellipse cx="-91.794" cy="380.259" fill="none" stroke="red" stroke-width="2" rx="45.924" ry="26.741"/><text x="-91.794" y="376.459" font-family="Times,serif" font-size="14" text-anchor="middle">equation</text><text x="-91.794" y="391.459" font-family="Times,serif" font-size="14" text-anchor="middle">of state</text></a></g></g><g id="edge15" class="edge"><title>cosmology-&gt;Cosmological_equation_of_state</title><path fill="none" stroke="#000" d="M-29.0726,293.025C-39.7376,307.858 -55.0147,329.106 -67.8212,346.917"/><polygon fill="#000" stroke="#000" points="-65.199 349.266 -73.879 355.342 -70.882 345.18 -65.199 349.266"/></g><g id="node2" class="node"><title>quantum_mechanics</title><g id="a_node2"><a xlink:href="https://en.wikipedia.org/wiki/Quantum_mechanics" xlink:title="quantum\nmechanics"><polygon fill="none" stroke="#00f" stroke-width="2" points="-331.706 -14.869 -407.706 -14.869 -407.706 23.131 -331.706 23.131 -331.706 -14.869"/><text x="-369.706" y=".331" font-family="Times,serif" font-size="14" text-anchor="middle">quantum</text><text x="-369.706" y="15.331" font-family="Times,serif" font-size="14" text-anchor="middle">mechanics</text></a></g></g><g id="node8" class="node"><title>Schrodingers_equation</title><g id="a_node8"><a xlink:href="https://en.wikipedia.org/wiki/Schr%C3%B6dinger_equation" xlink:title="Schrodinger's\nequation"><ellipse cx="-258.914" cy="-91.751" fill="none" stroke="red" stroke-width="2" rx="65.523" ry="26.741"/><text x="-258.914" y="-95.551" font-family="Times,serif" font-size="14" text-anchor="middle">Schrodinger&apos;s</text><text x="-258.914" y="-80.551" font-family="Times,serif" font-size="14" text-anchor="middle">equation</text></a></g></g><g id="edge2" class="edge"><title>quantum_mechanics-&gt;Schrodingers_equation</title><path fill="none" stroke="#000" stroke-width="2" d="M-347.552,-15.0415C-332.547,-28.0269 -312.379,-45.4807 -295.072,-60.4589"/><polygon fill="#000" stroke="#000" stroke-width="2" points="-297.202 -63.244 -287.35 -67.142 -292.621 -57.951 -297.202 -63.244"/></g><g id="node9" class="node"><title>particle_in_a_box</title><g id="a_node9"><a xlink:href="https://en.wikipedia.org/wiki/Particle_in_a_box" xlink:title="particle\nin a box"><ellipse cx="-398.496" cy="133.652" fill="none" stroke="red" stroke-width="2" rx="43.682" ry="26.741"/><text x="-398.496" y="129.852" font-family="Times,serif" font-size="14" text-anchor="middle">particle</text><text x="-398.496" y="144.852" font-family="Times,serif" font-size="14" text-anchor="middle">in a box</text></a></g></g><g id="edge3" class="edge"><title>quantum_mechanics-&gt;particle_in_a_box</title><path fill="none" stroke="#000" stroke-width="2" d="M-373.954,23.2425C-378.251,42.576 -385.004,72.9537 -390.339,96.9552"/><polygon fill="#000" stroke="#000" stroke-width="2" points="-386.941 97.798 -392.527 106.8 -393.774 96.279 -386.941 97.798"/></g><g id="node13" class="node"><title>quantum_harmonic_oscillator</title><g id="a_node13"><a xlink:href="https://en.wikipedia.org/wiki/Quantum_harmonic_oscillator" xlink:title="quantum_harmonic\noscillator"><ellipse cx="-504.107" cy="19.002" fill="none" stroke="red" stroke-width="2" rx="88.277" ry="26.741"/><text x="-504.107" y="15.202" font-family="Times,serif" font-size="14" text-anchor="middle">quantum_harmonic</text><text x="-504.107" y="30.202" font-family="Times,serif" font-size="14" text-anchor="middle">oscillator</text></a></g></g><g id="edge1" class="edge"><title>quantum_mechanics-&gt;quantum_harmonic_oscillator</title><path fill="none" stroke="#000" stroke-width="2" d="M-407.86,8.35281C-408.777,8.45424 -409.703,8.55666 -410.636,8.65997"/><polygon fill="#000" stroke="#000" stroke-width="2" points="-410.582 12.175 -420.907 9.796 -411.352 5.218 -410.582 12.175"/></g><g id="node16" class="node"><title>uncertainty_relation</title><g id="a_node16"><a xlink:href="https://en.wikipedia.org/wiki/Uncertainty_principle" xlink:title="uncertainty\nrelation"><ellipse cx="-452.994" cy="-91.739" fill="none" stroke="red" stroke-width="2" rx="55.723" ry="26.741"/><text x="-452.994" y="-95.539" font-family="Times,serif" font-size="14" text-anchor="middle">uncertainty</text><text x="-452.994" y="-80.539" font-family="Times,serif" font-size="14" text-anchor="middle">relation</text></a></g></g><g id="edge4" class="edge"><title>quantum_mechanics-&gt;uncertainty_relation</title><path fill="none" stroke="#000" stroke-width="2" d="M-386.56,-15.2695C-397.469,-27.8263 -411.946,-44.4904 -424.601,-59.0567"/><polygon fill="#000" stroke="#000" stroke-width="2" points="-427.493 -57.049 -431.409 -66.894 -422.209 -61.64 -427.493 -57.049"/></g><g id="node3" class="node"><title>classical_mechanics</title><g id="a_node3"><a xlink:href="https://en.wikipedia.org/wiki/Classical_mechanics" xlink:title="classical\nmechanics"><polygon fill="none" stroke="#00f" stroke-width="2" points="421.61 -68.725 345.61 -68.725 345.61 -30.726 421.61 -30.726 421.61 -68.725"/><text x="383.61" y="-53.526" font-family="Times,serif" font-size="14" text-anchor="middle">classical</text><text x="383.61" y="-38.526" font-family="Times,serif" font-size="14" text-anchor="middle">mechanics</text></a></g></g><g id="node10" class="node"><title>work</title><g id="a_node10"><a xlink:href="https://en.wikipedia.org/wiki/Work_(physics)" xlink:title="work"><ellipse cx="482.411" cy="29.51" fill="none" stroke="red" stroke-width="2" rx="29.497" ry="18"/><text x="482.411" y="33.21" font-family="Times,serif" font-size="14" text-anchor="middle">work</text></a></g></g><g id="edge5" class="edge"><title>classical_mechanics-&gt;work</title><path fill="none" stroke="#000" stroke-width="2" d="M407.527,-30.5449C422.369,-18.6425 441.436,-3.35106 456.616,8.8227"/><polygon fill="#000" stroke="#000" stroke-width="2" points="458.986 6.237 464.598 15.224 454.607 11.698 458.986 6.237"/></g><g id="node11" class="node"><title>F=m*a</title><g id="a_node11"><a xlink:href="https://en.wikipedia.org/wiki/Newton%27s_laws_of_motion#Newton.27s_second_law" xlink:title="F=m*a"><ellipse cx="260.063" cy="-28.716" fill="none" stroke="red" stroke-width="2" rx="36.294" ry="18"/><text x="260.063" y="-25.016" font-family="Times,serif" font-size="14" text-anchor="middle">F=m*a</text></a></g></g><g id="edge6" class="edge"><title>classical_mechanics-&gt;F=m*a</title><path fill="none" stroke="#000" stroke-width="2" d="M345.534,-43.2504C332.652,-41.0598 318.15,-38.5936 304.799,-36.3233"/><polygon fill="#000" stroke="#000" stroke-width="2" points="305.306 -32.859 294.86 -34.633 304.132 -39.76 305.306 -32.859"/></g><g id="node14" class="node"><title>momentum</title><g id="a_node14"><a xlink:href="https://en.wikipedia.org/wiki/Momentum" xlink:title="momentum"><ellipse cx="460" cy="-150.892" fill="none" stroke="red" stroke-width="2" rx="51.991" ry="18"/><text x="460" y="-147.192" font-family="Times,serif" font-size="14" text-anchor="middle">momentum</text></a></g></g><g id="edge7" class="edge"><title>classical_mechanics-&gt;momentum</title><path fill="none" stroke="#000" stroke-width="2" d="M397.978,-68.7542C410.012,-84.6912 427.3,-107.586 440.569,-125.158"/><polygon fill="#000" stroke="#000" stroke-width="2" points="437.9 -127.432 446.719 -133.303 443.486 -123.213 437.9 -127.432"/></g><g id="node4" class="node"><title>particle_physics</title><g id="a_node4"><a xlink:href="https://en.wikipedia.org/wiki/Particle_physics" xlink:title="particle\nphysics"><polygon fill="none" stroke="#00f" stroke-width="2" points="-45.629 -211.472 -104.628 -211.472 -104.628 -173.472 -45.629 -173.472 -45.629 -211.472"/><text x="-75.129" y="-196.272" font-family="Times,serif" font-size="14" text-anchor="middle">particle</text><text x="-75.129" y="-181.272" font-family="Times,serif" font-size="14" text-anchor="middle">physics</text></a></g></g><g id="node15" class="node"><title>Dirac_equation</title><g id="a_node15"><a xlink:href="https://en.wikipedia.org/wiki/Dirac_equation" xlink:title="Dirac\nEquation"><ellipse cx="-121.972" cy="-70.164" fill="none" stroke="red" stroke-width="2" rx="47.253" ry="26.741"/><text x="-121.972" y="-73.964" font-family="Times,serif" font-size="14" text-anchor="middle">Dirac</text><text x="-121.972" y="-58.964" font-family="Times,serif" font-size="14" text-anchor="middle">Equation</text></a></g></g><g id="edge8" class="edge"><title>particle_physics-&gt;Dirac_equation</title><path fill="none" stroke="#000" stroke-width="2" d="M-82.4478,-173.361C-89.3068,-155.453 -99.7366,-128.22 -108.16,-106.227"/><polygon fill="#000" stroke="#000" stroke-width="2" points="-104.905 -104.941 -111.75 -96.854 -111.442 -107.444 -104.905 -104.941"/></g><g id="node5" class="node"><title>relativity</title><g id="a_node5"><a xlink:href="https://en.wikipedia.org/wiki/Theory_of_relativity" xlink:title="relativity"><polygon fill="none" stroke="#00f" stroke-width="2" points="31.102 -9.745 -35.898 -9.745 -35.898 26.255 31.102 26.255 31.102 -9.745"/><text x="-2.398" y="11.955" font-family="Times,serif" font-size="14" text-anchor="middle">relativity</text></a></g></g><g id="edge9" class="edge"><title>relativity-&gt;Dirac_equation</title><g id="a_edge9"><a xlink:href="https://en.wikipedia.org/wiki/Dirac_equation"><path fill="none" stroke="#000" stroke-width="2" d="M-30.1311,-9.93303C-45.5236,-20.0278 -64.9407,-32.7619 -81.9519,-43.9182"/><polygon fill="#000" stroke="#000" stroke-width="2" points="-84.152 -41.175 -90.594 -49.586 -80.313 -47.029 -84.152 -41.175"/></a></g></g><g id="edge16" class="edge"><title>relativity-&gt;Friedmann_equations</title><path fill="none" stroke="#000" d="M-2.18313,26.5333C-1.94445,46.8548 -1.55245,80.2312 -1.2476,106.188"/><polygon fill="#000" stroke="#000" points="2.255 106.4 -1.127 116.441 -4.744 106.483 2.255 106.4"/></g><g id="node22" class="node"><title>Einstein_field_equations</title><g id="a_node22"><a xlink:href="https://en.wikipedia.org/wiki/Einstein_field_equations" xlink:title="Einstein\nfield equations"><ellipse cx="56.116" cy="-93.44" fill="none" stroke="red" stroke-width="2" rx="70.007" ry="26.741"/><text x="56.116" y="-97.24" font-family="Times,serif" font-size="14" text-anchor="middle">Einstein</text><text x="56.116" y="-82.24" font-family="Times,serif" font-size="14" text-anchor="middle">field equations</text></a></g></g><g id="edge17" class="edge"><title>relativity-&gt;Einstein_field_equations</title><g id="a_edge17"><a xlink:href="https://en.wikipedia.org/wiki/Mathematics_of_general_relativity#The_Einstein_field_equations"><path fill="none" stroke="#000" stroke-width="2" d="M8.0633,-9.92603C15.7739,-23.3268 26.5051,-41.9772 35.8708,-58.2545"/><polygon fill="#000" stroke="#000" stroke-width="2" points="32.885 -60.083 40.906 -67.005 38.952 -56.592 32.885 -60.083"/></a></g></g><g id="node25" class="node"><title>E=mc2</title><g id="a_node25"><a xlink:href="https://en.wikipedia.org/wiki/Mass%E2%80%93energy_equivalence" xlink:title="E=mc²"><ellipse cx="136.098" cy="1.643" fill="none" stroke="red" stroke-width="2" rx="35.194" ry="18"/><text x="136.098" y="5.343" font-family="Times,serif" font-size="14" text-anchor="middle">E=mc²</text></a></g></g><g id="edge10" class="edge"><title>relativity-&gt;E=mc2</title><g id="a_edge10"><a xlink:href="https://en.wikipedia.org/wiki/Mass%E2%80%93energy_equivalence"><path fill="none" stroke="#000" stroke-width="2" d="M31.1283,6.65449C49.0431,5.79925 71.3505,4.73431 90.7884,3.80637"/><polygon fill="#000" stroke="#000" stroke-width="2" points="90.793 .302 100.949 3.321 91.127 7.294 90.793 .302"/></a></g></g><g id="node6" class="node"><title>thermodynamics</title><g id="a_node6"><a xlink:href="https://en.wikipedia.org/wiki/Thermodynamics" xlink:title="thermodynamics"><polygon fill="none" stroke="#00f" stroke-width="2" points="-285.774 353.157 -395.774 353.157 -395.774 389.157 -285.774 389.157 -285.774 353.157"/><text x="-340.774" y="374.857" font-family="Times,serif" font-size="14" text-anchor="middle">thermodynamics</text></a></g></g><g id="node18" class="node"><title>Plancks_Law</title><g id="a_node18"><a xlink:href="https://en.wikipedia.org/wiki/Planck%27s_law" xlink:title="Planck's\nLaw"><ellipse cx="-410.678" cy="261.943" fill="none" stroke="red" stroke-width="2" rx="44.596" ry="26.741"/><text x="-410.678" y="258.143" font-family="Times,serif" font-size="14" text-anchor="middle">Planck&apos;s</text><text x="-410.678" y="273.143" font-family="Times,serif" font-size="14" text-anchor="middle">Law</text></a></g></g><g id="edge11" class="edge"><title>thermodynamics-&gt;Plancks_Law</title><path fill="none" stroke="#000" d="M-352.317,353.123C-362.226,337.641 -376.781,314.901 -388.876,296.004"/><polygon fill="#000" stroke="#000" points="-391.966 297.669 -394.41 287.36 -386.071 293.895 -391.966 297.669"/></g><g id="node23" class="node"><title>Ideal_gas_law</title><g id="a_node23"><a xlink:href="https://en.wikipedia.org/wiki/Ideal_gas_law" xlink:title="Ideal\ngas law"><ellipse cx="-217.44" cy="417.208" fill="none" stroke="red" stroke-width="2" rx="41.94" ry="26.741"/><text x="-217.44" y="413.408" font-family="Times,serif" font-size="14" text-anchor="middle">Ideal</text><text x="-217.44" y="428.408" font-family="Times,serif" font-size="14" text-anchor="middle">gas law</text></a></g></g><g id="edge12" class="edge"><title>thermodynamics-&gt;Ideal_gas_law</title><path fill="none" stroke="#000" d="M-292.383,389.225C-282.867,392.779 -272.907,396.497 -263.471,400.021"/><polygon fill="#000" stroke="#000" points="-262.011 396.83 -253.867 403.607 -264.46 403.387 -262.011 396.83"/></g><g id="node7" class="node"><title>electromagnetism</title><g id="a_node7"><a xlink:href="https://en.wikipedia.org/wiki/Electromagnetism" xlink:title="electromagnetism"><polygon fill="none" stroke="#00f" stroke-width="2" points="-343.461 -336.433 -459.461 -336.433 -459.461 -300.433 -343.461 -300.433 -343.461 -336.433"/><text x="-401.461" y="-314.733" font-family="Times,serif" font-size="14" text-anchor="middle">electromagnetism</text></a></g></g><g id="node17" class="node"><title>Maxwells_equations</title><g id="a_node17"><a xlink:href="https://en.wikipedia.org/wiki/Maxwell%27s_equations" xlink:title="Maxwells\nequations"><ellipse cx="-298.186" cy="-232.073" fill="none" stroke="red" stroke-width="2" rx="50.824" ry="26.741"/><text x="-298.186" y="-235.873" font-family="Times,serif" font-size="14" text-anchor="middle">Maxwells</text><text x="-298.186" y="-220.873" font-family="Times,serif" font-size="14" text-anchor="middle">equations</text></a></g></g><g id="edge13" class="edge"><title>electromagnetism-&gt;Maxwells_equations</title><path fill="none" stroke="#000" d="M-379.559,-300.118C-366.147,-288.903 -348.676,-274.292 -333.361,-261.486"/><polygon fill="#000" stroke="#000" points="-331.009 -264.082 -325.583 -254.982 -335.499 -258.712 -331.009 -264.082"/></g><g id="edge26" class="edge"><title>Schrodingers_equation-&gt;Maxwells_equations</title><g id="a_edge26"><a xlink:href="http://allofphysicsgraph.github.io/proofofconcept/reference_articles/derivations/2006_Ward_How_to_derive_the_schrodinger_equation.pdf"><path fill="none" stroke="#000" stroke-width="2" d="M-269.159,-128.358C-274.971,-149.123 -282.218,-175.017 -288.017,-195.738"/><polygon fill="#000" stroke="#000" stroke-width="2" points="-265.718 -129.048 -266.393 -118.475 -272.459 -127.161 -265.718 -129.048"/><polygon fill="#000" stroke="#000" stroke-width="2" points="-291.41 -194.875 -290.735 -205.448 -284.669 -196.762 -291.41 -194.875"/></a></g></g><g id="node20" class="node"><title>wave_equation</title><g id="a_node20"><a xlink:href="https://en.wikipedia.org/wiki/Wave_equation" xlink:title="wave\nequation"><ellipse cx="-350.47" cy="-154.342" fill="none" stroke="red" stroke-width="2" rx="45.924" ry="26.741"/><text x="-350.47" y="-158.142" font-family="Times,serif" font-size="14" text-anchor="middle">wave</text><text x="-350.47" y="-143.142" font-family="Times,serif" font-size="14" text-anchor="middle">equation</text></a></g></g><g id="edge21" class="edge"><title>Schrodingers_equation-&gt;wave_equation</title><g id="a_edge21"><a xlink:href="http://allofphysicsgraph.github.io/proofofconcept/reference_articles/derivations/2006_Ward_How_to_derive_the_schrodinger_equation.pdf"><path fill="none" stroke="#000" stroke-width="2" d="M-301.395,-120.793C-304.905,-123.192 -308.441,-125.61 -311.919,-127.988"/><polygon fill="#000" stroke="#000" stroke-width="2" points="-299.026 -123.413 -292.746 -114.88 -302.976 -117.634 -299.026 -123.413"/><polygon fill="#000" stroke="#000" stroke-width="2" points="-314.121 -125.253 -320.401 -133.786 -310.17 -131.032 -314.121 -125.253"/></a></g></g><g id="edge23" class="edge"><title>particle_in_a_box-&gt;Plancks_Law</title><g id="a_edge23"><a xlink:href="http://allofphysicsgraph.github.io/proofofconcept/reference_articles/derivations/derivation_of_plank_formula.pdf"><path fill="none" stroke="#000" stroke-width="2" d="M-401.999,170.541C-403.619,187.605 -405.539,207.83 -407.161,224.912"/><polygon fill="#000" stroke="#000" stroke-width="2" points="-405.479 170.17 -401.049 160.546 -398.51 170.832 -405.479 170.17"/><polygon fill="#000" stroke="#000" stroke-width="2" points="-403.698 225.46 -408.127 235.085 -410.666 224.798 -403.698 225.46"/></a></g></g><g id="node12" class="node"><title>harmonic_oscillator</title><g id="a_node12"><a xlink:href="https://en.wikipedia.org/wiki/Harmonic_oscillator" xlink:title="harmonic\noscillator"><ellipse cx="197" cy="121" fill="none" stroke="red" stroke-width="2" rx="48.582" ry="26.741"/><text x="197" y="117.2" font-family="Times,serif" font-size="14" text-anchor="middle">harmonic</text><text x="197" y="132.2" font-family="Times,serif" font-size="14" text-anchor="middle">oscillator</text></a></g></g><g id="edge20" class="edge"><title>Dirac_equation-&gt;Schrodingers_equation</title><g id="a_edge20"><a xlink:href="http://allofphysicsgraph.github.io/proofofconcept/reference_articles/derivations/2013_Boyd_Dirac_Equation.pdf"><path fill="none" stroke="#000" stroke-width="2" d="M-177.923,-78.984C-181.046,-79.4763 -184.205,-79.9742 -187.373,-80.4735"/><polygon fill="#000" stroke="#000" stroke-width="2" points="-177.286 -82.427 -167.953 -77.412 -178.376 -75.512 -177.286 -82.427"/><polygon fill="#000" stroke="#000" stroke-width="2" points="-188.153 -77.053 -197.486 -82.068 -187.063 -83.968 -188.153 -77.053"/></a></g></g><g id="node19" class="node"><title>Kirchhoffs_Laws</title><g id="a_node19"><a xlink:href="https://en.wikipedia.org/wiki/Kirchhoff%27s_circuit_laws" xlink:title="Kirchhoff's\nLaws"><ellipse cx="-275.133" cy="-355.424" fill="none" stroke="red" stroke-width="2" rx="56.637" ry="26.741"/><text x="-275.133" y="-359.224" font-family="Times,serif" font-size="14" text-anchor="middle">Kirchhoff&apos;s</text><text x="-275.133" y="-344.224" font-family="Times,serif" font-size="14" text-anchor="middle">Laws</text></a></g></g><g id="edge25" class="edge"><title>Maxwells_equations-&gt;Kirchhoffs_Laws</title><g id="a_edge25"><a xlink:href="http://allofphysicsgraph.github.io/proofofconcept/reference_articles/derivations/derivation_of_kirchhoffs_laws.pdf"><path fill="none" stroke="#000" stroke-width="2" d="M-291.339,-268.712C-288.409,-284.386 -284.994,-302.658 -282.056,-318.377"/><polygon fill="#000" stroke="#000" stroke-width="2" points="-287.906 -268.025 -293.184 -258.838 -294.787 -269.311 -287.906 -268.025"/><polygon fill="#000" stroke="#000" stroke-width="2" points="-285.482 -319.098 -280.205 -328.284 -278.602 -317.812 -285.482 -319.098"/></a></g></g><g id="edge22" class="edge"><title>wave_equation-&gt;uncertainty_relation</title><g id="a_edge22"><a xlink:href="http://allofphysicsgraph.github.io/proofofconcept/reference_articles/derivations/2010_Kessler_derivation_of_heisenberg_uncertainty_principle.pdf"><path fill="none" stroke="#000" stroke-width="2" d="M-391.138,-129.509C-397.175,-125.823 -403.417,-122.011 -409.509,-118.291"/><polygon fill="#000" stroke="#000" stroke-width="2" points="-392.706 -132.653 -382.347 -134.877 -389.058 -126.679 -392.706 -132.653"/><polygon fill="#000" stroke="#000" stroke-width="2" points="-407.927 -115.156 -418.286 -112.932 -411.575 -121.131 -407.927 -115.156"/></a></g></g><g id="edge24" class="edge"><title>wave_equation-&gt;Maxwells_equations</title><g id="a_edge24"><a xlink:href="http://allofphysicsgraph.github.io/proofofconcept/site/derivations_generated_from_project/maxwell_to_electric_field_wave_equation.html"><path fill="none" stroke="#000" stroke-width="5" d="M-327.987,-187.768C-325.671,-191.211 -323.315,-194.713 -320.995,-198.163"/><polygon fill="#000" stroke="#000" stroke-width="5" points="-324.428 -185.22 -333.639 -179.365 -331.688 -190.104 -324.428 -185.22"/><polygon fill="#000" stroke="#000" stroke-width="5" points="-324.556 -200.708 -315.344 -206.564 -317.295 -195.824 -324.556 -200.708"/></a></g></g><g id="edge18" class="edge"><title>Cosmological_equation_of_state-&gt;Ideal_gas_law</title><g id="a_edge18"><a xlink:href="https://en.wikipedia.org/wiki/Equation_of_state_(cosmology)"><path fill="none" stroke="#000" stroke-width="2" d="M-142.565,395.189C-151.447,397.801 -160.662,400.511 -169.464,403.099"/><polygon fill="#000" stroke="#000" stroke-width="2" points="-143.516 391.821 -132.935 392.357 -141.541 398.536 -143.516 391.821"/><polygon fill="#000" stroke="#000" stroke-width="2" points="-168.606 406.495 -179.188 405.959 -170.581 399.78 -168.606 406.495"/></a></g></g><g id="edge19" class="edge"><title>E=mc2-&gt;F=m*a</title><g id="a_edge19"><a xlink:href="http://www.mrelativity.net/relationshipef/the_relationship_between_e_and_f_p1.htm"><path fill="none" stroke="#000" stroke-width="2" d="M177.777,-8.56383C190.537,-11.6887 204.587,-15.1296 217.411,-18.27"/><polygon fill="#000" stroke="#000" stroke-width="2" points="178.568 -5.154 168.022 -6.175 176.903 -11.953 178.568 -5.154"/><polygon fill="#000" stroke="#000" stroke-width="2" points="216.838 -21.733 227.384 -20.712 218.503 -14.934 216.838 -21.733"/></a></g></g></g></svg>