<svg xmlns="http://www.w3.org/2000/svg" xmlns:xlink="http://www.w3.org/1999/xlink" width="34.33" height="44.749" viewBox="366.62 111.981 34.33 44.749"><defs><path id="7418" d="M201 402l-78 -313c-3 -12 -3 -31 -3 -32c0 -22 2 -47 32 -47c58 0 104 70 125 120c7 16 8 17 9 18c2 4 6 4 8 4c6 0 10 -3 10 -9c0 -7 -54 -153 -155 -153c-56 0 -89 43 -89 90c0 13 3 23 11 58l66 264h-89c-19 0 -26 0 -26 10c0 19 9 19 29 19h94l39 159 c8 32 31 35 39 35c13 0 26 -9 26 -25c0 -7 0 -9 -4 -23l-37 -146h88c20 0 26 0 26 -11c0 -18 -10 -18 -29 -18h-92z"/></defs><g><g><g transform="scale(1.25) scale(0.02488,-0.02488) translate(12168.362,-4627.612)"><use xlink:href="#7418"/></g></g></g></svg>