<svg xmlns="http://www.w3.org/2000/svg" xmlns:xlink="http://www.w3.org/1999/xlink" width="58.526" height="45.557" viewBox="354.79 110.862 58.526 45.557"><defs><path id="21" d="M661 230h-545c-14 0 -33 0 -33 20s19 20 33 20h545c14 0 33 0 33 -20s-19 -20 -33 -20z"/><path id="3115" d="M266 639v-566c0 -36 2 -47 88 -47h30v-26c-48 1 -98 2 -146 2s-98 -1 -146 -2v26h30c86 0 88 12 88 47v527c-40 -24 -92 -30 -123 -30c0 21 0 23 1 25s6 2 9 2c56 2 115 17 154 64c14 0 15 -1 15 -22z"/></defs><g><g><g transform="scale(1.25) scale(0.02488,-0.02488) translate(11726.955,-4627.612)"><use xlink:href="#0021"/></g></g><g><g transform="scale(1.25) scale(0.02488,-0.02488) translate(12503.955,-4627.612)"><use xlink:href="#3115"/></g></g></g></svg>